<svg xmlns="http://www.w3.org/2000/svg" xmlns:xlink="http://www.w3.org/1999/xlink" version="1.1" x="0" y="0" viewBox="0 0 220 220" width="220" height="220">
<rect x="0" y="0" width="220" fill="none" height="220" stroke="none"></rect>
<g transform="translate(10, 10)">
<g fill="#ec4899">
<rect x="65.60343999999999" y="1.60984" width="4.799519999999999" height="4.799519999999999" rx="4"></rect>
<rect x="73.60264" y="1.60984" width="4.799519999999999" height="4.799519999999999" rx="4"></rect>
<rect x="89.60104" y="1.60984" width="4.799519999999999" height="4.799519999999999" rx="4"></rect>
<rect x="97.60024" y="1.60984" width="4.799519999999999" height="4.799519999999999" rx="4"></rect>
<rect x="113.59863999999999" y="1.60984" width="4.799519999999999" height="4.799519999999999" rx="4"></rect>
<rect x="73.60264" y="9.60904" width="4.799519999999999" height="4.799519999999999" rx="4"></rect>
<rect x="81.60184" y="9.60904" width="4.799519999999999" height="4.799519999999999" rx="4"></rect>
<rect x="89.60104" y="9.60904" width="4.799519999999999" height="4.799519999999999" rx="4"></rect>
<rect x="97.60024" y="9.60904" width="4.799519999999999" height="4.799519999999999" rx="4"></rect>
<rect x="129.59704" y="9.60904" width="4.799519999999999" height="4.799519999999999" rx="4"></rect>
<rect x="65.60343999999999" y="17.60824" width="4.799519999999999" height="4.799519999999999" rx="4"></rect>
<rect x="73.60264" y="17.60824" width="4.799519999999999" height="4.799519999999999" rx="4"></rect>
<rect x="89.60104" y="17.60824" width="4.799519999999999" height="4.799519999999999" rx="4"></rect>
<rect x="97.60024" y="17.60824" width="4.799519999999999" height="4.799519999999999" rx="4"></rect>
<rect x="113.59863999999999" y="17.60824" width="4.799519999999999" height="4.799519999999999" rx="4"></rect>
<rect x="121.59783999999999" y="17.60824" width="4.799519999999999" height="4.799519999999999" rx="4"></rect>
<rect x="65.60343999999999" y="25.60744" width="4.799519999999999" height="4.799519999999999" rx="4"></rect>
<rect x="73.60264" y="25.60744" width="4.799519999999999" height="4.799519999999999" rx="4"></rect>
<rect x="81.60184" y="25.60744" width="4.799519999999999" height="4.799519999999999" rx="4"></rect>
<rect x="89.60104" y="25.60744" width="4.799519999999999" height="4.799519999999999" rx="4"></rect>
<rect x="105.59944" y="25.60744" width="4.799519999999999" height="4.799519999999999" rx="4"></rect>
<rect x="129.59704" y="25.60744" width="4.799519999999999" height="4.799519999999999" rx="4"></rect>
<rect x="81.60184" y="33.60664" width="4.799519999999999" height="4.799519999999999" rx="4"></rect>
<rect x="97.60024" y="33.60664" width="4.799519999999999" height="4.799519999999999" rx="4"></rect>
<rect x="65.60343999999999" y="41.60583999999999" width="4.799519999999999" height="4.799519999999999" rx="4"></rect>
<rect x="73.60264" y="41.60583999999999" width="4.799519999999999" height="4.799519999999999" rx="4"></rect>
<rect x="121.59783999999999" y="41.60583999999999" width="4.799519999999999" height="4.799519999999999" rx="4"></rect>
<rect x="129.59704" y="41.60583999999999" width="4.799519999999999" height="4.799519999999999" rx="4"></rect>
<rect x="65.60343999999999" y="49.605039999999995" width="4.799519999999999" height="4.799519999999999" rx="4"></rect>
<rect x="81.60184" y="49.605039999999995" width="4.799519999999999" height="4.799519999999999" rx="4"></rect>
<rect x="97.60024" y="49.605039999999995" width="4.799519999999999" height="4.799519999999999" rx="4"></rect>
<rect x="113.59863999999999" y="49.605039999999995" width="4.799519999999999" height="4.799519999999999" rx="4"></rect>
<rect x="129.59704" y="49.605039999999995" width="4.799519999999999" height="4.799519999999999" rx="4"></rect>
<rect x="65.60343999999999" y="57.60423999999999" width="4.799519999999999" height="4.799519999999999" rx="4"></rect>
<rect x="81.60184" y="57.60423999999999" width="4.799519999999999" height="4.799519999999999" rx="4"></rect>
<rect x="89.60104" y="57.60423999999999" width="4.799519999999999" height="4.799519999999999" rx="4"></rect>
<rect x="105.59944" y="57.60423999999999" width="4.799519999999999" height="4.799519999999999" rx="4"></rect>
<rect x="121.59783999999999" y="57.60423999999999" width="4.799519999999999" height="4.799519999999999" rx="4"></rect>
<rect x="129.59704" y="57.60423999999999" width="4.799519999999999" height="4.799519999999999" rx="4"></rect>
<rect x="9.60904" y="65.60343999999999" width="4.799519999999999" height="4.799519999999999" rx="4"></rect>
<rect x="25.60744" y="65.60343999999999" width="4.799519999999999" height="4.799519999999999" rx="4"></rect>
<rect x="41.60583999999999" y="65.60343999999999" width="4.799519999999999" height="4.799519999999999" rx="4"></rect>
<rect x="49.605039999999995" y="65.60343999999999" width="4.799519999999999" height="4.799519999999999" rx="4"></rect>
<rect x="57.60423999999999" y="65.60343999999999" width="4.799519999999999" height="4.799519999999999" rx="4"></rect>
<rect x="65.60343999999999" y="65.60343999999999" width="4.799519999999999" height="4.799519999999999" rx="4"></rect>
<rect x="73.60264" y="65.60343999999999" width="4.799519999999999" height="4.799519999999999" rx="4"></rect>
<rect x="81.60184" y="65.60343999999999" width="4.799519999999999" height="4.799519999999999" rx="4"></rect>
<rect x="89.60104" y="65.60343999999999" width="4.799519999999999" height="4.799519999999999" rx="4"></rect>
<rect x="113.59863999999999" y="65.60343999999999" width="4.799519999999999" height="4.799519999999999" rx="4"></rect>
<rect x="129.59704" y="65.60343999999999" width="4.799519999999999" height="4.799519999999999" rx="4"></rect>
<rect x="137.59623999999997" y="65.60343999999999" width="4.799519999999999" height="4.799519999999999" rx="4"></rect>
<rect x="145.59543999999997" y="65.60343999999999" width="4.799519999999999" height="4.799519999999999" rx="4"></rect>
<rect x="153.59463999999997" y="65.60343999999999" width="4.799519999999999" height="4.799519999999999" rx="4"></rect>
<rect x="169.59303999999997" y="65.60343999999999" width="4.799519999999999" height="4.799519999999999" rx="4"></rect>
<rect x="177.59223999999998" y="65.60343999999999" width="4.799519999999999" height="4.799519999999999" rx="4"></rect>
<rect x="193.59063999999998" y="65.60343999999999" width="4.799519999999999" height="4.799519999999999" rx="4"></rect>
<rect x="17.60824" y="73.60264" width="4.799519999999999" height="4.799519999999999" rx="4"></rect>
<rect x="25.60744" y="73.60264" width="4.799519999999999" height="4.799519999999999" rx="4"></rect>
<rect x="33.60664" y="73.60264" width="4.799519999999999" height="4.799519999999999" rx="4"></rect>
<rect x="57.60423999999999" y="73.60264" width="4.799519999999999" height="4.799519999999999" rx="4"></rect>
<rect x="65.60343999999999" y="73.60264" width="4.799519999999999" height="4.799519999999999" rx="4"></rect>
<rect x="81.60184" y="73.60264" width="4.799519999999999" height="4.799519999999999" rx="4"></rect>
<rect x="89.60104" y="73.60264" width="4.799519999999999" height="4.799519999999999" rx="4"></rect>
<rect x="97.60024" y="73.60264" width="4.799519999999999" height="4.799519999999999" rx="4"></rect>
<rect x="105.59944" y="73.60264" width="4.799519999999999" height="4.799519999999999" rx="4"></rect>
<rect x="121.59783999999999" y="73.60264" width="4.799519999999999" height="4.799519999999999" rx="4"></rect>
<rect x="129.59704" y="73.60264" width="4.799519999999999" height="4.799519999999999" rx="4"></rect>
<rect x="145.59543999999997" y="73.60264" width="4.799519999999999" height="4.799519999999999" rx="4"></rect>
<rect x="193.59063999999998" y="73.60264" width="4.799519999999999" height="4.799519999999999" rx="4"></rect>
<rect x="9.60904" y="81.60184" width="4.799519999999999" height="4.799519999999999" rx="4"></rect>
<rect x="17.60824" y="81.60184" width="4.799519999999999" height="4.799519999999999" rx="4"></rect>
<rect x="25.60744" y="81.60184" width="4.799519999999999" height="4.799519999999999" rx="4"></rect>
<rect x="49.605039999999995" y="81.60184" width="4.799519999999999" height="4.799519999999999" rx="4"></rect>
<rect x="57.60423999999999" y="81.60184" width="4.799519999999999" height="4.799519999999999" rx="4"></rect>
<rect x="89.60104" y="81.60184" width="4.799519999999999" height="4.799519999999999" rx="4"></rect>
<rect x="105.59944" y="81.60184" width="4.799519999999999" height="4.799519999999999" rx="4"></rect>
<rect x="113.59863999999999" y="81.60184" width="4.799519999999999" height="4.799519999999999" rx="4"></rect>
<rect x="121.59783999999999" y="81.60184" width="4.799519999999999" height="4.799519999999999" rx="4"></rect>
<rect x="145.59543999999997" y="81.60184" width="4.799519999999999" height="4.799519999999999" rx="4"></rect>
<rect x="153.59463999999997" y="81.60184" width="4.799519999999999" height="4.799519999999999" rx="4"></rect>
<rect x="161.59383999999997" y="81.60184" width="4.799519999999999" height="4.799519999999999" rx="4"></rect>
<rect x="185.59143999999998" y="81.60184" width="4.799519999999999" height="4.799519999999999" rx="4"></rect>
<rect x="193.59063999999998" y="81.60184" width="4.799519999999999" height="4.799519999999999" rx="4"></rect>
<rect x="1.60984" y="89.60104" width="4.799519999999999" height="4.799519999999999" rx="4"></rect>
<rect x="17.60824" y="89.60104" width="4.799519999999999" height="4.799519999999999" rx="4"></rect>
<rect x="33.60664" y="89.60104" width="4.799519999999999" height="4.799519999999999" rx="4"></rect>
<rect x="41.60583999999999" y="89.60104" width="4.799519999999999" height="4.799519999999999" rx="4"></rect>
<rect x="65.60343999999999" y="89.60104" width="4.799519999999999" height="4.799519999999999" rx="4"></rect>
<rect x="81.60184" y="89.60104" width="4.799519999999999" height="4.799519999999999" rx="4"></rect>
<rect x="97.60024" y="89.60104" width="4.799519999999999" height="4.799519999999999" rx="4"></rect>
<rect x="105.59944" y="89.60104" width="4.799519999999999" height="4.799519999999999" rx="4"></rect>
<rect x="129.59704" y="89.60104" width="4.799519999999999" height="4.799519999999999" rx="4"></rect>
<rect x="137.59623999999997" y="89.60104" width="4.799519999999999" height="4.799519999999999" rx="4"></rect>
<rect x="145.59543999999997" y="89.60104" width="4.799519999999999" height="4.799519999999999" rx="4"></rect>
<rect x="161.59383999999997" y="89.60104" width="4.799519999999999" height="4.799519999999999" rx="4"></rect>
<rect x="9.60904" y="97.60024" width="4.799519999999999" height="4.799519999999999" rx="4"></rect>
<rect x="25.60744" y="97.60024" width="4.799519999999999" height="4.799519999999999" rx="4"></rect>
<rect x="33.60664" y="97.60024" width="4.799519999999999" height="4.799519999999999" rx="4"></rect>
<rect x="41.60583999999999" y="97.60024" width="4.799519999999999" height="4.799519999999999" rx="4"></rect>
<rect x="49.605039999999995" y="97.60024" width="4.799519999999999" height="4.799519999999999" rx="4"></rect>
<rect x="57.60423999999999" y="97.60024" width="4.799519999999999" height="4.799519999999999" rx="4"></rect>
<rect x="73.60264" y="97.60024" width="4.799519999999999" height="4.799519999999999" rx="4"></rect>
<rect x="113.59863999999999" y="97.60024" width="4.799519999999999" height="4.799519999999999" rx="4"></rect>
<rect x="121.59783999999999" y="97.60024" width="4.799519999999999" height="4.799519999999999" rx="4"></rect>
<rect x="129.59704" y="97.60024" width="4.799519999999999" height="4.799519999999999" rx="4"></rect>
<rect x="145.59543999999997" y="97.60024" width="4.799519999999999" height="4.799519999999999" rx="4"></rect>
<rect x="153.59463999999997" y="97.60024" width="4.799519999999999" height="4.799519999999999" rx="4"></rect>
<rect x="169.59303999999997" y="97.60024" width="4.799519999999999" height="4.799519999999999" rx="4"></rect>
<rect x="185.59143999999998" y="97.60024" width="4.799519999999999" height="4.799519999999999" rx="4"></rect>
<rect x="193.59063999999998" y="97.60024" width="4.799519999999999" height="4.799519999999999" rx="4"></rect>
<rect x="25.60744" y="105.59944" width="4.799519999999999" height="4.799519999999999" rx="4"></rect>
<rect x="41.60583999999999" y="105.59944" width="4.799519999999999" height="4.799519999999999" rx="4"></rect>
<rect x="73.60264" y="105.59944" width="4.799519999999999" height="4.799519999999999" rx="4"></rect>
<rect x="81.60184" y="105.59944" width="4.799519999999999" height="4.799519999999999" rx="4"></rect>
<rect x="97.60024" y="105.59944" width="4.799519999999999" height="4.799519999999999" rx="4"></rect>
<rect x="113.59863999999999" y="105.59944" width="4.799519999999999" height="4.799519999999999" rx="4"></rect>
<rect x="121.59783999999999" y="105.59944" width="4.799519999999999" height="4.799519999999999" rx="4"></rect>
<rect x="129.59704" y="105.59944" width="4.799519999999999" height="4.799519999999999" rx="4"></rect>
<rect x="137.59623999999997" y="105.59944" width="4.799519999999999" height="4.799519999999999" rx="4"></rect>
<rect x="145.59543999999997" y="105.59944" width="4.799519999999999" height="4.799519999999999" rx="4"></rect>
<rect x="153.59463999999997" y="105.59944" width="4.799519999999999" height="4.799519999999999" rx="4"></rect>
<rect x="169.59303999999997" y="105.59944" width="4.799519999999999" height="4.799519999999999" rx="4"></rect>
<rect x="177.59223999999998" y="105.59944" width="4.799519999999999" height="4.799519999999999" rx="4"></rect>
<rect x="193.59063999999998" y="105.59944" width="4.799519999999999" height="4.799519999999999" rx="4"></rect>
<rect x="1.60984" y="113.59863999999999" width="4.799519999999999" height="4.799519999999999" rx="4"></rect>
<rect x="17.60824" y="113.59863999999999" width="4.799519999999999" height="4.799519999999999" rx="4"></rect>
<rect x="25.60744" y="113.59863999999999" width="4.799519999999999" height="4.799519999999999" rx="4"></rect>
<rect x="33.60664" y="113.59863999999999" width="4.799519999999999" height="4.799519999999999" rx="4"></rect>
<rect x="49.605039999999995" y="113.59863999999999" width="4.799519999999999" height="4.799519999999999" rx="4"></rect>
<rect x="57.60423999999999" y="113.59863999999999" width="4.799519999999999" height="4.799519999999999" rx="4"></rect>
<rect x="65.60343999999999" y="113.59863999999999" width="4.799519999999999" height="4.799519999999999" rx="4"></rect>
<rect x="81.60184" y="113.59863999999999" width="4.799519999999999" height="4.799519999999999" rx="4"></rect>
<rect x="89.60104" y="113.59863999999999" width="4.799519999999999" height="4.799519999999999" rx="4"></rect>
<rect x="105.59944" y="113.59863999999999" width="4.799519999999999" height="4.799519999999999" rx="4"></rect>
<rect x="113.59863999999999" y="113.59863999999999" width="4.799519999999999" height="4.799519999999999" rx="4"></rect>
<rect x="153.59463999999997" y="113.59863999999999" width="4.799519999999999" height="4.799519999999999" rx="4"></rect>
<rect x="161.59383999999997" y="113.59863999999999" width="4.799519999999999" height="4.799519999999999" rx="4"></rect>
<rect x="177.59223999999998" y="113.59863999999999" width="4.799519999999999" height="4.799519999999999" rx="4"></rect>
<rect x="193.59063999999998" y="113.59863999999999" width="4.799519999999999" height="4.799519999999999" rx="4"></rect>
<rect x="9.60904" y="121.59783999999999" width="4.799519999999999" height="4.799519999999999" rx="4"></rect>
<rect x="25.60744" y="121.59783999999999" width="4.799519999999999" height="4.799519999999999" rx="4"></rect>
<rect x="33.60664" y="121.59783999999999" width="4.799519999999999" height="4.799519999999999" rx="4"></rect>
<rect x="73.60264" y="121.59783999999999" width="4.799519999999999" height="4.799519999999999" rx="4"></rect>
<rect x="81.60184" y="121.59783999999999" width="4.799519999999999" height="4.799519999999999" rx="4"></rect>
<rect x="89.60104" y="121.59783999999999" width="4.799519999999999" height="4.799519999999999" rx="4"></rect>
<rect x="105.59944" y="121.59783999999999" width="4.799519999999999" height="4.799519999999999" rx="4"></rect>
<rect x="129.59704" y="121.59783999999999" width="4.799519999999999" height="4.799519999999999" rx="4"></rect>
<rect x="137.59623999999997" y="121.59783999999999" width="4.799519999999999" height="4.799519999999999" rx="4"></rect>
<rect x="145.59543999999997" y="121.59783999999999" width="4.799519999999999" height="4.799519999999999" rx="4"></rect>
<rect x="161.59383999999997" y="121.59783999999999" width="4.799519999999999" height="4.799519999999999" rx="4"></rect>
<rect x="185.59143999999998" y="121.59783999999999" width="4.799519999999999" height="4.799519999999999" rx="4"></rect>
<rect x="1.60984" y="129.59704" width="4.799519999999999" height="4.799519999999999" rx="4"></rect>
<rect x="9.60904" y="129.59704" width="4.799519999999999" height="4.799519999999999" rx="4"></rect>
<rect x="17.60824" y="129.59704" width="4.799519999999999" height="4.799519999999999" rx="4"></rect>
<rect x="25.60744" y="129.59704" width="4.799519999999999" height="4.799519999999999" rx="4"></rect>
<rect x="49.605039999999995" y="129.59704" width="4.799519999999999" height="4.799519999999999" rx="4"></rect>
<rect x="57.60423999999999" y="129.59704" width="4.799519999999999" height="4.799519999999999" rx="4"></rect>
<rect x="81.60184" y="129.59704" width="4.799519999999999" height="4.799519999999999" rx="4"></rect>
<rect x="89.60104" y="129.59704" width="4.799519999999999" height="4.799519999999999" rx="4"></rect>
<rect x="97.60024" y="129.59704" width="4.799519999999999" height="4.799519999999999" rx="4"></rect>
<rect x="113.59863999999999" y="129.59704" width="4.799519999999999" height="4.799519999999999" rx="4"></rect>
<rect x="121.59783999999999" y="129.59704" width="4.799519999999999" height="4.799519999999999" rx="4"></rect>
<rect x="169.59303999999997" y="129.59704" width="4.799519999999999" height="4.799519999999999" rx="4"></rect>
<rect x="177.59223999999998" y="129.59704" width="4.799519999999999" height="4.799519999999999" rx="4"></rect>
<rect x="65.60343999999999" y="137.59623999999997" width="4.799519999999999" height="4.799519999999999" rx="4"></rect>
<rect x="81.60184" y="137.59623999999997" width="4.799519999999999" height="4.799519999999999" rx="4"></rect>
<rect x="89.60104" y="137.59623999999997" width="4.799519999999999" height="4.799519999999999" rx="4"></rect>
<rect x="97.60024" y="137.59623999999997" width="4.799519999999999" height="4.799519999999999" rx="4"></rect>
<rect x="105.59944" y="137.59623999999997" width="4.799519999999999" height="4.799519999999999" rx="4"></rect>
<rect x="113.59863999999999" y="137.59623999999997" width="4.799519999999999" height="4.799519999999999" rx="4"></rect>
<rect x="121.59783999999999" y="137.59623999999997" width="4.799519999999999" height="4.799519999999999" rx="4"></rect>
<rect x="169.59303999999997" y="137.59623999999997" width="4.799519999999999" height="4.799519999999999" rx="4"></rect>
<rect x="193.59063999999998" y="137.59623999999997" width="4.799519999999999" height="4.799519999999999" rx="4"></rect>
<rect x="65.60343999999999" y="145.59543999999997" width="4.799519999999999" height="4.799519999999999" rx="4"></rect>
<rect x="73.60264" y="145.59543999999997" width="4.799519999999999" height="4.799519999999999" rx="4"></rect>
<rect x="97.60024" y="145.59543999999997" width="4.799519999999999" height="4.799519999999999" rx="4"></rect>
<rect x="121.59783999999999" y="145.59543999999997" width="4.799519999999999" height="4.799519999999999" rx="4"></rect>
<rect x="137.59623999999997" y="129.59703999999996" width="28.797119999999996" height="4.799519999999999" rx="2"></rect>
<rect x="161.59383999999997" y="137.59623999999997" width="4.799519999999999" height="28.797119999999996" rx="2"></rect>
<rect x="129.59703999999996" y="161.59383999999997" width="28.797119999999996" height="4.799519999999999" rx="2"></rect>
<rect x="129.59703999999996" y="129.59703999999996" width="4.799519999999999" height="28.797119999999996" rx="2"></rect>
<rect x="145.59543999999997" y="145.59543999999997" width="4.799519999999999" height="4.799519999999999" rx="4"></rect>
<rect x="169.59303999999997" y="145.59543999999997" width="4.799519999999999" height="4.799519999999999" rx="4"></rect>
<rect x="185.59143999999998" y="145.59543999999997" width="4.799519999999999" height="4.799519999999999" rx="4"></rect>
<rect x="193.59063999999998" y="145.59543999999997" width="4.799519999999999" height="4.799519999999999" rx="4"></rect>
<rect x="65.60343999999999" y="153.59463999999997" width="4.799519999999999" height="4.799519999999999" rx="4"></rect>
<rect x="81.60184" y="153.59463999999997" width="4.799519999999999" height="4.799519999999999" rx="4"></rect>
<rect x="89.60104" y="153.59463999999997" width="4.799519999999999" height="4.799519999999999" rx="4"></rect>
<rect x="113.59863999999999" y="153.59463999999997" width="4.799519999999999" height="4.799519999999999" rx="4"></rect>
<rect x="121.59783999999999" y="153.59463999999997" width="4.799519999999999" height="4.799519999999999" rx="4"></rect>
<rect x="169.59303999999997" y="153.59463999999997" width="4.799519999999999" height="4.799519999999999" rx="4"></rect>
<rect x="177.59223999999998" y="153.59463999999997" width="4.799519999999999" height="4.799519999999999" rx="4"></rect>
<rect x="185.59143999999998" y="153.59463999999997" width="4.799519999999999" height="4.799519999999999" rx="4"></rect>
<rect x="193.59063999999998" y="153.59463999999997" width="4.799519999999999" height="4.799519999999999" rx="4"></rect>
<rect x="73.60264" y="161.59383999999997" width="4.799519999999999" height="4.799519999999999" rx="4"></rect>
<rect x="81.60184" y="161.59383999999997" width="4.799519999999999" height="4.799519999999999" rx="4"></rect>
<rect x="97.60024" y="161.59383999999997" width="4.799519999999999" height="4.799519999999999" rx="4"></rect>
<rect x="105.59944" y="161.59383999999997" width="4.799519999999999" height="4.799519999999999" rx="4"></rect>
<rect x="169.59303999999997" y="161.59383999999997" width="4.799519999999999" height="4.799519999999999" rx="4"></rect>
<rect x="65.60343999999999" y="169.59303999999997" width="4.799519999999999" height="4.799519999999999" rx="4"></rect>
<rect x="81.60184" y="169.59303999999997" width="4.799519999999999" height="4.799519999999999" rx="4"></rect>
<rect x="121.59783999999999" y="169.59303999999997" width="4.799519999999999" height="4.799519999999999" rx="4"></rect>
<rect x="153.59463999999997" y="169.59303999999997" width="4.799519999999999" height="4.799519999999999" rx="4"></rect>
<rect x="161.59383999999997" y="169.59303999999997" width="4.799519999999999" height="4.799519999999999" rx="4"></rect>
<rect x="169.59303999999997" y="169.59303999999997" width="4.799519999999999" height="4.799519999999999" rx="4"></rect>
<rect x="177.59223999999998" y="169.59303999999997" width="4.799519999999999" height="4.799519999999999" rx="4"></rect>
<rect x="185.59143999999998" y="169.59303999999997" width="4.799519999999999" height="4.799519999999999" rx="4"></rect>
<rect x="81.60184" y="177.59223999999998" width="4.799519999999999" height="4.799519999999999" rx="4"></rect>
<rect x="89.60104" y="177.59223999999998" width="4.799519999999999" height="4.799519999999999" rx="4"></rect>
<rect x="97.60024" y="177.59223999999998" width="4.799519999999999" height="4.799519999999999" rx="4"></rect>
<rect x="105.59944" y="177.59223999999998" width="4.799519999999999" height="4.799519999999999" rx="4"></rect>
<rect x="113.59863999999999" y="177.59223999999998" width="4.799519999999999" height="4.799519999999999" rx="4"></rect>
<rect x="121.59783999999999" y="177.59223999999998" width="4.799519999999999" height="4.799519999999999" rx="4"></rect>
<rect x="153.59463999999997" y="177.59223999999998" width="4.799519999999999" height="4.799519999999999" rx="4"></rect>
<rect x="161.59383999999997" y="177.59223999999998" width="4.799519999999999" height="4.799519999999999" rx="4"></rect>
<rect x="177.59223999999998" y="177.59223999999998" width="4.799519999999999" height="4.799519999999999" rx="4"></rect>
<rect x="193.59063999999998" y="177.59223999999998" width="4.799519999999999" height="4.799519999999999" rx="4"></rect>
<rect x="65.60343999999999" y="185.59143999999998" width="4.799519999999999" height="4.799519999999999" rx="4"></rect>
<rect x="97.60024" y="185.59143999999998" width="4.799519999999999" height="4.799519999999999" rx="4"></rect>
<rect x="121.59783999999999" y="185.59143999999998" width="4.799519999999999" height="4.799519999999999" rx="4"></rect>
<rect x="129.59704" y="185.59143999999998" width="4.799519999999999" height="4.799519999999999" rx="4"></rect>
<rect x="137.59623999999997" y="185.59143999999998" width="4.799519999999999" height="4.799519999999999" rx="4"></rect>
<rect x="145.59543999999997" y="185.59143999999998" width="4.799519999999999" height="4.799519999999999" rx="4"></rect>
<rect x="169.59303999999997" y="185.59143999999998" width="4.799519999999999" height="4.799519999999999" rx="4"></rect>
<rect x="81.60184" y="193.59063999999998" width="4.799519999999999" height="4.799519999999999" rx="4"></rect>
<rect x="105.59944" y="193.59063999999998" width="4.799519999999999" height="4.799519999999999" rx="4"></rect>
<rect x="121.59783999999999" y="193.59063999999998" width="4.799519999999999" height="4.799519999999999" rx="4"></rect>
<rect x="129.59704" y="193.59063999999998" width="4.799519999999999" height="4.799519999999999" rx="4"></rect>
<rect x="137.59623999999997" y="193.59063999999998" width="4.799519999999999" height="4.799519999999999" rx="4"></rect>
<rect x="145.59543999999997" y="193.59063999999998" width="4.799519999999999" height="4.799519999999999" rx="4"></rect>
<rect x="153.59463999999997" y="193.59063999999998" width="4.799519999999999" height="4.799519999999999" rx="4"></rect>
<rect x="185.59143999999998" y="193.59063999999998" width="4.799519999999999" height="4.799519999999999" rx="4"></rect>
<rect x="193.59063999999998" y="193.59063999999998" width="4.799519999999999" height="4.799519999999999" rx="4"></rect>
<rect x="177.59223999999998" y="105.59944" width="4.799519999999999" height="12.79872" rx="2"></rect>
<rect x="177.59223999999998" y="169.59303999999997" width="4.799519999999999" height="12.79872" rx="2"></rect>
<rect x="65.60343999999999" y="145.59543999999997" width="12.79872" height="4.799519999999999" rx="2"></rect>
<rect x="185.59143999999998" y="145.59543999999997" width="12.79872" height="4.799519999999999" rx="2"></rect>
<rect x="121.59783999999999" y="73.60264" width="4.799519999999999" height="12.79872" rx="2"></rect>
<rect x="121.59783999999999" y="97.60024" width="4.799519999999999" height="12.79872" rx="2"></rect>
<rect x="121.59783999999999" y="129.59704" width="4.799519999999999" height="28.797119999999996" rx="2"></rect>
<rect x="121.59783999999999" y="169.59303999999997" width="4.799519999999999" height="28.797119999999996" rx="2"></rect>
<rect x="161.59383999999997" y="81.60184" width="4.799519999999999" height="12.79872" rx="2"></rect>
<rect x="161.59383999999997" y="113.59863999999999" width="4.799519999999999" height="12.79872" rx="2"></rect>
<rect x="161.59383999999997" y="169.59303999999997" width="4.799519999999999" height="12.79872" rx="2"></rect>
<rect x="33.60664" y="89.60104" width="4.799519999999999" height="12.79872" rx="2"></rect>
<rect x="33.60664" y="113.59863999999999" width="4.799519999999999" height="12.79872" rx="2"></rect>
<rect x="97.60024" y="89.60104" width="12.79872" height="4.799519999999999" rx="2"></rect>
<rect x="129.59704" y="89.60104" width="20.797919999999998" height="4.799519999999999" rx="2"></rect>
<rect x="65.60343999999999" y="17.60824" width="4.799519999999999" height="12.79872" rx="2"></rect>
<rect x="65.60343999999999" y="41.60583999999999" width="4.799519999999999" height="36.796319999999994" rx="2"></rect>
<rect x="65.60343999999999" y="137.59623999999997" width="4.799519999999999" height="4.799519999999999" rx="2"></rect>
<rect x="73.60264" y="161.59383999999997" width="12.79872" height="4.799519999999999" rx="2"></rect>
<rect x="97.60024" y="161.59383999999997" width="12.79872" height="4.799519999999999" rx="2"></rect>
<rect x="81.60184" y="57.60423999999999" width="12.79872" height="4.799519999999999" rx="2"></rect>
<rect x="121.59783999999999" y="57.60423999999999" width="12.79872" height="4.799519999999999" rx="2"></rect>
<rect x="17.60824" y="73.60264" width="20.797919999999998" height="4.799519999999999" rx="2"></rect>
<rect x="81.60184" y="73.60264" width="28.797119999999996" height="4.799519999999999" rx="2"></rect>
<rect x="153.59463999999997" y="97.60024" width="4.799519999999999" height="20.797919999999998" rx="2"></rect>
<rect x="153.59463999999997" y="169.59303999999997" width="4.799519999999999" height="12.79872" rx="2"></rect>
<rect x="57.60423999999999" y="65.60343999999999" width="4.799519999999999" height="20.797919999999998" rx="2"></rect>
<rect x="17.60824" y="81.60184" width="4.799519999999999" height="12.79872" rx="2"></rect>
<rect x="1.60984" y="129.59704" width="28.797119999999996" height="4.799519999999999" rx="2"></rect>
<rect x="49.605039999999995" y="129.59704" width="12.79872" height="4.799519999999999" rx="2"></rect>
<rect x="81.60184" y="129.59704" width="20.797919999999998" height="4.799519999999999" rx="2"></rect>
<rect x="169.59303999999997" y="129.59704" width="12.79872" height="4.799519999999999" rx="2"></rect>
<rect x="73.60264" y="9.60904" width="28.797119999999996" height="4.799519999999999" rx="2"></rect>
<rect x="97.60024" y="1.60984" width="4.799519999999999" height="4.799519999999999" rx="2"></rect>
<rect x="97.60024" y="137.59623999999997" width="4.799519999999999" height="12.79872" rx="2"></rect>
<rect x="97.60024" y="177.59223999999998" width="4.799519999999999" height="12.79872" rx="2"></rect>
<rect x="49.605039999999995" y="113.59863999999999" width="20.797919999999998" height="4.799519999999999" rx="2"></rect>
<rect x="81.60184" y="113.59863999999999" width="12.79872" height="4.799519999999999" rx="2"></rect>
<rect x="105.59944" y="113.59863999999999" width="12.79872" height="4.799519999999999" rx="2"></rect>
<rect x="41.60583999999999" y="89.60104" width="4.799519999999999" height="20.797919999999998" rx="2"></rect>
<rect x="169.59303999999997" y="97.60024" width="4.799519999999999" height="12.79872" rx="2"></rect>
<rect x="169.59303999999997" y="137.59623999999997" width="4.799519999999999" height="36.796319999999994" rx="2"></rect>
<rect x="185.59143999999998" y="97.60024" width="12.79872" height="4.799519999999999" rx="2"></rect>
<rect x="81.60184" y="153.59463999999997" width="12.79872" height="4.799519999999999" rx="2"></rect>
<rect x="145.59543999999997" y="65.60343999999999" width="4.799519999999999" height="20.797919999999998" rx="2"></rect>
<rect x="145.59543999999997" y="97.60024" width="4.799519999999999" height="12.79872" rx="2"></rect>
<rect x="145.59543999999997" y="185.59143999999998" width="4.799519999999999" height="12.79872" rx="2"></rect>
<rect x="137.59623999999997" y="185.59143999999998" width="4.799519999999999" height="12.79872" rx="2"></rect>
<rect x="73.60264" y="105.59944" width="12.79872" height="4.799519999999999" rx="2"></rect>
<rect x="25.60744" y="65.60343999999999" width="4.799519999999999" height="4.799519999999999" rx="2"></rect>
<rect x="25.60744" y="97.60024" width="4.799519999999999" height="28.797119999999996" rx="2"></rect>
<rect x="65.60343999999999" y="1.60984" width="12.79872" height="4.799519999999999" rx="2"></rect>
<rect x="89.60104" y="1.60984" width="4.799519999999999" height="4.799519999999999" rx="2"></rect>
<rect x="89.60104" y="17.60824" width="4.799519999999999" height="12.79872" rx="2"></rect>
<rect x="89.60104" y="65.60343999999999" width="4.799519999999999" height="4.799519999999999" rx="2"></rect>
<rect x="89.60104" y="121.59783999999999" width="4.799519999999999" height="4.799519999999999" rx="2"></rect>
<rect x="129.59704" y="121.59783999999999" width="20.797919999999998" height="4.799519999999999" rx="2"></rect>
<rect x="129.59704" y="41.60583999999999" width="4.799519999999999" height="12.79872" rx="2"></rect>
<rect x="129.59704" y="65.60343999999999" width="4.799519999999999" height="12.79872" rx="2"></rect>
<rect x="129.59704" y="97.60024" width="4.799519999999999" height="12.79872" rx="2"></rect>
<rect x="129.59704" y="185.59143999999998" width="4.799519999999999" height="12.79872" rx="2"></rect>
<rect x="105.59944" y="81.60184" width="4.799519999999999" height="4.799519999999999" rx="2"></rect>
<rect x="169.59303999999997" y="65.60343999999999" width="12.79872" height="4.799519999999999" rx="2"></rect>
<rect x="185.59143999999998" y="81.60184" width="12.79872" height="4.799519999999999" rx="2"></rect>
<rect x="193.59063999999998" y="65.60343999999999" width="4.799519999999999" height="12.79872" rx="2"></rect>
<rect x="193.59063999999998" y="105.59944" width="4.799519999999999" height="12.79872" rx="2"></rect>
<rect x="193.59063999999998" y="137.59623999999997" width="4.799519999999999" height="4.799519999999999" rx="2"></rect>
<rect x="113.59863999999999" y="97.60024" width="4.799519999999999" height="12.79872" rx="2"></rect>
<rect x="113.59863999999999" y="129.59704" width="4.799519999999999" height="12.79872" rx="2"></rect>
<rect x="81.60184" y="25.60744" width="4.799519999999999" height="12.79872" rx="2"></rect>
<rect x="81.60184" y="49.605039999999995" width="4.799519999999999" height="4.799519999999999" rx="2"></rect>
<rect x="81.60184" y="65.60343999999999" width="4.799519999999999" height="4.799519999999999" rx="2"></rect>
<rect x="81.60184" y="121.59783999999999" width="4.799519999999999" height="4.799519999999999" rx="2"></rect>
<rect x="81.60184" y="169.59303999999997" width="4.799519999999999" height="12.79872" rx="2"></rect>
<rect x="73.60264" y="17.60824" width="4.799519999999999" height="12.79872" rx="2"></rect>
<rect x="73.60264" y="97.60024" width="4.799519999999999" height="4.799519999999999" rx="2"></rect>
<rect x="185.59143999999998" y="193.59063999999998" width="12.79872" height="4.799519999999999" rx="2"></rect>
<rect x="113.59863999999999" y="17.60824" width="12.79872" height="4.799519999999999" rx="2"></rect>
<rect x="9.60904" y="121.59783999999999" width="4.799519999999999" height="4.799519999999999" rx="2"></rect>
</g>
<g>
<rect x="3.9995999999999996" y="3.9995999999999996" width="47.9952" fill="none" height="47.9952" stroke-width="7.999199999999999" stroke="#ec4899" rx="7.999199999999999"></rect>
<rect x="15.998399999999998" y="15.998399999999998" width="23.9976" fill="#ec4899" height="23.9976" rx="3.9995999999999996"></rect>
<rect x="148.0052" y="3.9995999999999996" width="47.9952" fill="none" height="47.9952" stroke-width="7.999199999999999" stroke="#ec4899" rx="7.999199999999999"></rect>
<rect x="160.00400000000002" y="15.998399999999998" width="23.9976" fill="#ec4899" height="23.9976" rx="3.9995999999999996"></rect>
<rect x="3.9995999999999996" y="148.0052" width="47.9952" fill="none" height="47.9952" stroke-width="7.999199999999999" stroke="#ec4899" rx="7.999199999999999"></rect>
<rect x="15.998399999999998" y="160.00400000000002" width="23.9976" fill="#ec4899" height="23.9976" rx="3.9995999999999996"></rect>
</g>
</g>
</svg>